<?xml version="1.0" encoding="utf-8"?>
<svg xmlns="http://www.w3.org/2000/svg" viewBox="0 0 30 30" stroke-width="1.5" stroke="currentColor" aria-hidden="true" data-slot="icon" fill="transparent">
  <path d="M25 4.991A3 3 0 1025 10.991 3 3 0 1025 4.991zM29.002 16.001v4.01c0 .55-.45 1-1 1v4.96c0 .57-.46 1.03-1.03 1.03-.55 0-1-.42-1.04-.97l-.43-5.56c-.02-.27-.24-.47-.5-.47s-.48.2-.5.46l-.44 5.57c-.03.55-.48.97-1.03.97-.57 0-1.03-.46-1.03-1.03v-4.96c-.01 0-.01 0-.02 0-.55-.01-.99-.46-.98-1.01v-4c0-1.65 1.35-3 3-3h.27l-.41 2.09c-.02.08 0 .16.05.23l.86 1.14c.09.13.27.16.4.06.02-.01.04-.03.06-.06l.86-1.14c.05-.07.07-.15.05-.23l-.42-2.09h.28C27.642 13.001 29.002 14.351 29.002 16.001zM15 3A3 3 0 1015 9 3 3 0 1015 3zM19.002 14.001v5.01c0 .55-.45 1-1 1v5.96c0 .57-.46 1.03-1.03 1.03-.55 0-1-.42-1.04-.97l-.43-6.56c-.02-.27-.24-.47-.5-.47s-.48.2-.5.46l-.44 6.57c-.03.55-.48.97-1.03.97-.57 0-1.03-.46-1.03-1.03v-5.96c-.01 0-.01 0-.02 0-.55-.01-.99-.46-.98-1.01v-5c0-1.65 1.35-3 3-3h.47c-.01.02-.03.04-.04.07l-.57 2.87c-.02.08 0 .16.05.23l.86 1.15c.09.12.27.15.4.05.02-.01.04-.03.06-.05l.86-1.15c.05-.07.07-.15.05-.23l-.57-2.87c-.01-.03-.03-.05-.05-.07h.48C17.642 11.001 19.002 12.351 19.002 14.001zM5 4.991A3 3 0 105 10.991 3 3 0 105 4.991zM9.002 16.001v4.01c0 .55-.45 1-1 1v4.96c0 .57-.46 1.03-1.03 1.03-.55 0-1-.42-1.04-.97l-.43-5.56c-.02-.27-.24-.47-.5-.47s-.48.2-.5.46l-.44 5.57c-.03.55-.48.97-1.03.97-.57 0-1.03-.46-1.03-1.03v-4.96c-.01 0-.01 0-.02 0-.55-.01-.99-.46-.98-1.01v-4c0-1.65 1.35-3 3-3h.27l-.41 2.09c-.02.08 0 .16.05.23l.86 1.14c.09.13.27.16.4.06.02-.01.04-.03.06-.06l.86-1.14c.05-.07.07-.15.05-.23l-.42-2.09h.28C7.642 13.001 9.002 14.351 9.002 16.001z" />
</svg>
