<svg xmlns="http://www.w3.org/2000/svg" viewBox="0 0 50 50" stroke-width="1.5" stroke="currentColor" aria-hidden="true" data-slot="icon" fill="currentColor">
  <path d="M25 1C16.738281 1 10 7.738281 10 16C10 23.582031 15.675781 29.894531 23 30.875L23 36L16 36L16 40L23 40L23 47L27 47L27 40L34 40L34 36L27 36L27 30.875C34.324219 29.894531 40 23.582031 40 16C40 7.738281 33.261719 1 25 1 Z M 25 5C31.097656 5 36 9.902344 36 16C36 22.097656 31.097656 27 25 27C18.902344 27 14 22.097656 14 16C14 9.902344 18.902344 5 25 5Z" />
</svg>
