<svg xmlns="http://www.w3.org/2000/svg" viewBox="0 0 50 50" stroke-width="1.5" stroke="currentColor" aria-hidden="true" data-slot="icon" fill="currentColor">
  <path d="M28 4L28 8L39.1875 8L28.09375 19.09375C25.566406 17.15625 22.414063 16 19 16C10.738281 16 4 22.738281 4 31C4 39.261719 10.738281 46 19 46C27.261719 46 34 39.261719 34 31C34 27.585938 32.84375 24.433594 30.90625 21.90625L42 10.8125L42 22L46 22L46 4 Z M 19 20C25.097656 20 30 24.902344 30 31C30 37.097656 25.097656 42 19 42C12.902344 42 8 37.097656 8 31C8 24.902344 12.902344 20 19 20Z" />
</svg>
