<?xml version="1.0" encoding="utf-8"?>
<svg xmlns="http://www.w3.org/2000/svg" viewBox="0 0 30 30" stroke-width="1.5" stroke="currentColor" aria-hidden="true" data-slot="icon" fill="transparent">
  <path d="M15 2C12.568 2 4 3 4 13L4 17L4 18C4 19.516667 4.6641977 20.596554 5.3417969 21.189453C5.7549533 21.550965 5.9278894 21.556643 6.2050781 21.666016C6.5660373 22.598838 8.8648083 27.924489 14.884766 27.994141 A 1.0001 1.0001 0 0 0 15 28 A 1.0001 1.0001 0 0 0 15.119141 27.994141C21.136102 27.922165 23.434043 22.598631 23.794922 21.666016C24.072111 21.556643 24.245047 21.550965 24.658203 21.189453C25.335802 20.596554 26 19.516667 26 18L26 16L26 13C26 9 24 4 20 4C20 4 19 2 15 2 z M 20 8C20 8 23 10.76 23 17L24 17L24 18C24 18.983333 23.664198 19.403446 23.341797 19.685547C23.019396 19.967648 22.757812 20.029297 22.757812 20.029297L22.224609 20.162109L22.050781 20.683594C22.050781 20.683594 20.333333 26 15 26C9.6666667 26 7.9492188 20.683594 7.9492188 20.683594L7.7753906 20.162109L7.2421875 20.029297C7.2421875 20.029297 6.9806039 19.967647 6.6582031 19.685547C6.3358023 19.403446 6 18.983333 6 18L6 17L7 17C7 10 17 15 20 8 z M 9 15 A 1.0001 1.0001 0 0 0 8 16L8 18C8 19.64497 9.3550302 21 11 21C12.64497 21 14 19.64497 14 18L14 17L16 17L16 18C16 19.64497 17.35503 21 19 21C20.64497 21 22 19.64497 22 18L22 16 A 1.0001 1.0001 0 0 0 21 15L17 15L13 15L9 15 z M 10 17L12 17L12 18C12 18.56503 11.56503 19 11 19C10.43497 19 10 18.56503 10 18L10 17 z M 18 17L20 17L20 18C20 18.56503 19.56503 19 19 19C18.43497 19 18 18.56503 18 18L18 17 z" />
</svg>
