<?xml version="1.0" encoding="utf-8"?>
<svg xmlns="http://www.w3.org/2000/svg" viewBox="0 0 30 30" stroke-width="1.5" stroke="currentColor" aria-hidden="true" data-slot="icon" fill="transparent">
  <path d="M15 1 A 1 1 0 0 0 14.503906 1.1328125L14.5 1.125L0.5 9.125L0.50195312 9.1347656 A 1 1 0 0 0 0 10 A 1 1 0 0 0 0.68554688 10.947266L0.68554688 10.949219L5 12.740234L5 10.777344C5 10.108344 5.333625 9.4842813 5.890625 9.1132812C6.214625 8.8972812 9.228 7 15 7C20.772 7 23.785375 8.8962812 24.109375 9.1132812C24.666375 9.4842812 25 10.108344 25 10.777344L25 12.740234L27 11.910156L27 22.277344C26.404366 22.623613 26 23.261054 26 24C26 25.105 28 28 28 28C28 28 30 25.105 30 24C30 23.261054 29.595634 22.623613 29 22.277344L29 11.080078L29.314453 10.949219L29.314453 10.947266 A 1 1 0 0 0 30 10 A 1 1 0 0 0 29.498047 9.1347656L29.5 9.125L15.5 1.125L15.496094 1.1328125 A 1 1 0 0 0 15 1 z M 15 9C9.667 9 7 10.777344 7 10.777344L7 13L7 14C5.9069372 14 5 14.906937 5 16L5 17C5 18.516667 5.6641977 19.596554 6.3417969 20.189453C6.7212524 20.521477 6.8575366 20.511021 7.1347656 20.626953C7.2504309 21.142836 7.5360224 22.231768 8.4179688 23.554688C9.5279779 25.219701 11.605535 26.93563 14.847656 26.990234 A 1.0001 1.0001 0 0 0 15 27 A 1.0001 1.0001 0 0 0 15.136719 26.990234C18.388094 26.941084 20.470184 25.222458 21.582031 23.554688C22.463978 22.231768 22.749569 21.142836 22.865234 20.626953C23.142463 20.511021 23.278748 20.521477 23.658203 20.189453C24.335802 19.596554 25 18.516667 25 17L25 16C25 14.906937 24.093063 14 23 14L23 13L23 10.777344C23 10.777344 20.333 9 15 9 z M 15 13.556641C17.639779 13.556641 19.621838 13.991639 20.955078 14.431641C20.983975 14.927168 21 15.449297 21 16L23 16L23 17C23 17.983333 22.664198 18.403446 22.341797 18.685547C22.019396 18.967648 21.757812 19.029297 21.757812 19.029297L21.121094 19.189453L21.013672 19.835938C21.013672 19.835938 20.789961 21.137325 19.917969 22.445312C19.045976 23.753302 17.666667 25 15 25C12.333333 25 10.954024 23.753301 10.082031 22.445312C9.2100392 21.137324 8.9863281 19.835937 8.9863281 19.835938L8.8789062 19.189453L8.2421875 19.029297C8.2421875 19.029297 7.9806039 18.967647 7.6582031 18.685547C7.3358023 18.403446 7 17.983333 7 17L7 16L9 16C9 15.360112 9.0867138 14.835415 9.2265625 14.378906C10.556546 13.957876 12.467865 13.556641 15 13.556641 z" />
</svg>
