<?xml version="1.0" encoding="utf-8"?>
<svg xmlns="http://www.w3.org/2000/svg" viewBox="0 0 30 30" stroke-width="1.5" stroke="currentColor" aria-hidden="true" data-slot="icon" fill="transparent">
  <path d="M11.5 3 A 2.5 2.5 0 0 0 9 5.5 A 2.5 2.5 0 0 0 11.5 8 A 2.5 2.5 0 0 0 14 5.5 A 2.5 2.5 0 0 0 11.5 3 z M 25 8 A 2 2 0 0 0 23 10 A 2 2 0 0 0 25 12 A 2 2 0 0 0 27 10 A 2 2 0 0 0 25 8 z M 5.4980469 8.9863281 A 1.0001 1.0001 0 0 0 4.5214844 9.7910156L3.1914062 16.001953 A 1.0001 1.0001 0 1 0 5.1464844 16.419922L6.4785156 10.208984 A 1.0001 1.0001 0 0 0 5.4980469 8.9863281 z M 10.5 10 A 2.5 2.5 0 0 0 8.0351562 12.085938L7.0917969 16.408203 A 2 2 0 0 0 7 17 A 2 2 0 0 0 7.3945312 18.1875L11.992188 26.232422L12.115234 26.466797 A 1.0003551 1.0003551 0 0 0 13.919922 25.607422L11.4375 18.166016L11.96875 16.328125 A 1.0001 1.0001 0 0 0 11.986328 16.353516L14.146484 18.994141 A 1.0001 1.0001 0 1 0 15.693359 17.726562L13.681641 15.267578L12.990234 12.294922 A 2.5 2.5 0 0 0 10.5 10 z M 18.892578 12.986328 A 1.0001 1.0001 0 0 0 17.933594 13.685547L16.613281 17.685547 A 1.0001 1.0001 0 1 0 18.511719 18.314453L19.833984 14.314453 A 1.0001 1.0001 0 0 0 18.892578 12.986328 z M 23.021484 13.992188 A 1.0001 1.0001 0 0 0 22.800781 14.009766 A 2 2 0 0 0 21.097656 15.390625L21.095703 15.392578 A 2 2 0 0 0 21.072266 15.464844L20.173828 18.191406 A 2 2 0 0 0 20 19 A 2 2 0 0 0 20.478516 20.296875L24.033203 26.316406L24.119141 26.474609 A 1.000583 1.000583 0 0 0 25.892578 25.548828L23.726562 20.230469L24.041016 19.148438L25.21875 20.623047 A 1.0001 1.0001 0 1 0 26.78125 19.376953L25.486328 17.753906L24.923828 15.443359 A 1.0001 1.0001 0 0 0 24.847656 15.238281 A 2 2 0 0 0 23.164062 14.007812 A 1.0001 1.0001 0 0 0 23.021484 13.992188 z M 6.4492188 20.568359L6.2207031 21.666016L4.5175781 25.527344C4.2575781 26.013344 4.4407344 26.621813 4.9277344 26.882812C5.0787344 26.962813 5.2394375 27 5.3984375 27C5.7554375 27 6.10025 26.809656 6.28125 26.472656L8.0703125 23.404297L6.4492188 20.568359 z M 19.271484 22.1875L18.972656 23.275391L17.232422 25.359375C16.878422 25.783375 16.935375 26.414578 17.359375 26.767578C17.546375 26.924578 17.773 27 18 27C18.286 27 18.569578 26.877625 18.767578 26.640625L20.667969 24.550781L19.271484 22.1875 z" />
</svg>
