<?xml version="1.0" encoding="utf-8"?>
<svg xmlns="http://www.w3.org/2000/svg" viewBox="0 0 30 30" stroke-width="1.5" stroke="currentColor" aria-hidden="true" data-slot="icon" fill="transparent">
  <path d="M10 2 A 3 3 0 0 0 7 5 A 3 3 0 0 0 10 8 A 3 3 0 0 0 13 5 A 3 3 0 0 0 10 2 z M 21 2 A 3 3 0 0 0 18 5 A 3 3 0 0 0 21 8 A 3 3 0 0 0 24 5 A 3 3 0 0 0 21 2 z M 6.7636719 5.0019531C6.3255313 5.0187812 5.3722031 5.1317031 4.7519531 5.7519531C3.9249531 6.5789531 4.0019531 7.9980469 4.0019531 7.9980469C4.0019531 7.9980469 5.4210469 8.0750469 6.2480469 7.2480469C7.0750469 6.4210469 6.9980469 5.0019531 6.9980469 5.0019531C6.9980469 5.0019531 6.9097187 4.9963438 6.7636719 5.0019531 z M 20 10C18.346 10 17 11.346 17 13L17 19C17 19.553 17.448 20 18 20L18 25.966797C18 26.536797 18.463203 27 19.033203 27C19.577203 27 20.028453 26.578156 20.064453 26.035156L20.501953 19.464844C20.519953 19.203844 20.737 19 21 19C21.263 19 21.480047 19.204797 21.498047 19.466797L21.935547 26.035156C21.971547 26.577156 22.422797 27 22.966797 27C23.536797 27 24 26.536797 24 25.966797L24 20C24.552 20 25 19.553 25 19L25 13C25 11.346 23.654 10 22 10L21.5 11.5L22 16L21 17L20 16L20.5 11.5L20 10 z M 9.046875 10.140625C7.835875 10.477625 6.862875 11.429266 6.546875 12.697266L5.0292969 18.757812C4.8942969 19.292813 5.2208125 19.836703 5.7578125 19.970703C5.8398125 19.990703 5.919 19.980469 6 19.980469L6 21C6 21.552 6.448 22 7 22L7 25.966797C7 26.536797 7.4632031 27 8.0332031 27C8.5772031 27 9.0284531 26.577156 9.0644531 26.035156L9.3320312 22L10.667969 22L10.935547 26.035156C10.971547 26.578156 11.422797 27 11.966797 27C12.536797 27 13 26.536797 13 25.966797L13 22C13.552 22 14 21.552 14 21L14 20C14.08 20 14.161187 19.990703 14.242188 19.970703C14.778187 19.836703 15.104703 19.292812 14.970703 18.757812L13.453125 12.695312C13.136125 11.428313 12.164125 10.476625 10.953125 10.140625L10.5 11.5L11 16L10 17L9 16L9.5 11.5L9.046875 10.140625 z" />
</svg>
